<?xml version="1.0" encoding="UTF-8"?>
<!DOCTYPE svg PUBLIC "-//W3C//DTD SVG 1.1//EN" "http://www.w3.org/Graphics/SVG/1.1/DTD/svg11.dtd">
<svg xmlns="http://www.w3.org/2000/svg" version="1.1" width="545px" height="458px" style="shape-rendering:geometricPrecision; text-rendering:geometricPrecision; image-rendering:optimizeQuality; fill-rule:evenodd; clip-rule:evenodd" xmlns:xlink="http://www.w3.org/1999/xlink">
<g><path style="opacity:1" fill="#e0555f" d="M 277.5,20.5 C 272.786,20.1734 268.12,20.5067 263.5,21.5C 260.15,23.1751 256.816,24.8418 253.5,26.5C 260.217,18.9206 268.217,16.9206 277.5,20.5 Z"/></g>
<g><path style="opacity:1" fill="#f93e4b" d="M 277.5,20.5 C 280.09,21.1283 282.423,22.295 284.5,24C 308.395,47.7283 332.062,71.5616 355.5,95.5C 357.3,97.8283 358.467,100.495 359,103.5C 360.444,105.155 362.278,105.822 364.5,105.5C 364.343,106.873 364.51,108.207 365,109.5C 368.715,113.127 372.881,116.127 377.5,118.5C 378.473,118.987 379.473,119.487 380.5,120C 405.756,145.089 430.756,170.255 455.5,195.5C 455.302,198.77 456.802,200.77 460,201.5C 463.261,205.217 466.261,209.217 469,213.5C 469.499,217.486 469.666,221.486 469.5,225.5C 468.022,226.448 467.022,227.781 466.5,229.5C 464.952,229.821 464.285,230.821 464.5,232.5C 462.473,232.338 460.473,232.505 458.5,233C 458.957,233.414 459.291,233.914 459.5,234.5C 457.345,235.41 455.345,236.577 453.5,238C 445.323,238.171 437.323,238.671 429.5,239.5C 428.667,287.998 428.167,336.665 428,385.5C 427.333,388.167 426.667,390.833 426,393.5C 424.129,394.997 423.129,396.997 423,399.5C 422.667,399.167 422.333,398.833 422,398.5C 421.506,400.134 421.34,401.801 421.5,403.5C 421.5,404.167 421.167,404.5 420.5,404.5C 417.813,406.511 414.813,407.845 411.5,408.5C 411.67,409.822 411.337,410.989 410.5,412C 402.552,415.547 394.219,417.381 385.5,417.5C 306.499,417.667 227.499,417.5 148.5,417C 143.031,416.756 137.698,415.922 132.5,414.5C 129.524,411.352 126.69,408.018 124,404.5C 122.989,405.337 121.822,405.67 120.5,405.5C 118.765,401.81 116.932,398.143 115,394.5C 115.128,391.514 115.128,388.514 115,385.5C 113.221,388.276 112.221,387.943 112,384.5C 111.5,335.834 111.333,287.168 111.5,238.5C 100.736,238.941 90.0693,238.274 79.5,236.5C 79.1667,235.833 78.8333,235.167 78.5,234.5C 75.4423,231.11 72.7756,227.444 70.5,223.5C 69.4175,217.146 70.5841,211.146 74,205.5C 89.0591,191.272 103.892,176.939 118.5,162.5C 125.711,158.993 130.377,153.993 132.5,147.5C 147.167,132.167 162.167,117.167 177.5,102.5C 179.91,101.617 182.243,100.45 184.5,99C 188.04,94.9641 191.373,90.7975 194.5,86.5C 195.167,85.1667 196.167,84.1667 197.5,83.5C 199.505,81.666 201.672,79.9993 204,78.5C 204.483,77.552 204.649,76.552 204.5,75.5C 213.167,70.1667 220.167,63.1667 225.5,54.5C 228.723,52.9525 231.39,50.6192 233.5,47.5C 237.833,42.5 242.5,37.8333 247.5,33.5C 249.175,31.998 251.008,30.6647 253,29.5C 253.483,28.552 253.649,27.552 253.5,26.5C 256.816,24.8418 260.15,23.1751 263.5,21.5C 268.12,20.5067 272.786,20.1734 277.5,20.5 Z M 365.5,163.5 C 371.167,169.833 377.167,175.833 383.5,181.5C 385.127,183.63 386.96,185.63 389,187.5C 389.5,250.499 389.667,313.499 389.5,376.5C 310.002,377.499 230.335,377.833 150.5,377.5C 150.333,314.166 150.5,250.832 151,187.5C 170.729,167.938 190.229,148.272 209.5,128.5C 217.07,122.719 223.737,116.053 229.5,108.5C 242.791,95.2119 256.457,82.2119 270.5,69.5C 302.188,100.854 333.854,132.188 365.5,163.5 Z"/></g>
<g><path style="opacity:1" fill="#e06b6f" d="M 253.5,26.5 C 253.649,27.552 253.483,28.552 253,29.5C 251.008,30.6647 249.175,31.998 247.5,33.5C 248.757,30.5726 250.757,28.2393 253.5,26.5 Z"/></g>
<g><path style="opacity:1" fill="#e06f72" d="M 233.5,47.5 C 231.39,50.6192 228.723,52.9525 225.5,54.5C 227.569,51.4275 230.236,49.0941 233.5,47.5 Z"/></g>
<g><path style="opacity:1" fill="#e0555e" d="M 225.5,54.5 C 220.167,63.1667 213.167,70.1667 204.5,75.5C 211.833,68.8333 218.833,61.8333 225.5,54.5 Z"/></g>
<g><path style="opacity:1" fill="#e0686c" d="M 204.5,75.5 C 204.649,76.552 204.483,77.552 204,78.5C 201.672,79.9993 199.505,81.666 197.5,83.5C 199.094,80.2358 201.427,77.5691 204.5,75.5 Z"/></g>
<g><path style="opacity:1" fill="#e6525a" d="M 194.5,86.5 C 191.373,90.7975 188.04,94.9641 184.5,99C 182.243,100.45 179.91,101.617 177.5,102.5C 183.14,97.1946 188.807,91.8612 194.5,86.5 Z"/></g>
<g><path style="opacity:1" fill="#eb4b55" d="M 355.5,95.5 C 363.535,102.534 370.868,110.201 377.5,118.5C 372.881,116.127 368.715,113.127 365,109.5C 364.51,108.207 364.343,106.873 364.5,105.5C 362.278,105.822 360.444,105.155 359,103.5C 358.467,100.495 357.3,97.8283 355.5,95.5 Z"/></g>
<g><path style="opacity:1" fill="#eb4e57" d="M 229.5,108.5 C 223.737,116.053 217.07,122.719 209.5,128.5C 209.67,127.178 209.337,126.011 208.5,125C 209.325,123.312 210.325,123.145 211.5,124.5C 212.371,119.954 215.038,117.621 219.5,117.5C 219.413,114.402 219.913,114.068 221,116.5C 221.49,115.207 221.657,113.873 221.5,112.5C 224.167,111.167 226.833,109.833 229.5,108.5 Z"/></g>
<g><path style="opacity:1" fill="#e6525d" d="M 132.5,147.5 C 130.377,153.993 125.711,158.993 118.5,162.5C 122.461,156.871 127.127,151.871 132.5,147.5 Z"/></g>
<g><path style="opacity:1" fill="#e94c55" d="M 365.5,163.5 C 367.865,164.008 370.199,164.675 372.5,165.5C 376.888,170.319 380.555,175.653 383.5,181.5C 377.167,175.833 371.167,169.833 365.5,163.5 Z"/></g>
<g><path style="opacity:1" fill="#e2444c" d="M 383.5,181.5 C 385.17,181.751 386.67,182.418 388,183.5C 389.049,182.483 390.216,182.316 391.5,183C 390.842,247.322 390.175,311.822 389.5,376.5C 389.667,313.499 389.5,250.499 389,187.5C 386.96,185.63 385.127,183.63 383.5,181.5 Z"/></g>
<g><path style="opacity:1" fill="#e76467" d="M 320.5,200.5 C 309.071,200.042 297.737,200.708 286.5,202.5C 297.562,196.827 308.895,196.16 320.5,200.5 Z"/></g>
<g><path style="opacity:1" fill="#f93e4b" d="M 268.5,213.5 C 269.652,214.625 270.652,214.625 271.5,213.5C 275.689,211.985 279.023,209.318 281.5,205.5C 283.848,205.408 285.514,204.408 286.5,202.5C 297.737,200.708 309.071,200.042 320.5,200.5C 326.115,204.09 331.782,207.757 337.5,211.5C 338.606,214.054 339.439,216.721 340,219.5C 340.333,219.167 340.667,218.833 341,218.5C 342.11,220.397 342.276,222.23 341.5,224C 343.521,224.513 345.021,225.68 346,227.5C 346.766,230.58 347.766,233.58 349,236.5C 349.489,243.235 348.989,249.901 347.5,256.5C 347.737,257.791 347.404,258.791 346.5,259.5C 344.896,260.287 344.229,261.62 344.5,263.5C 343.5,263.5 342.5,263.5 341.5,263.5C 341.5,264.833 341.5,266.167 341.5,267.5C 339.419,268.72 337.419,269.386 335.5,269.5C 336.246,270.736 336.579,272.07 336.5,273.5C 331.839,272.832 329.839,274.832 330.5,279.5C 327.411,279.906 324.745,281.24 322.5,283.5C 321.914,283.291 321.414,282.957 321,282.5C 320.405,283.899 320.572,285.232 321.5,286.5C 319.344,288.629 317.677,290.962 316.5,293.5C 309.5,301.167 302.167,308.5 294.5,315.5C 290.276,314.944 287.943,316.777 287.5,321C 285.802,320.503 284.135,320.67 282.5,321.5C 281.526,323.743 281.192,326.076 281.5,328.5C 279.914,329.413 278.414,329.413 277,328.5C 276.685,331.147 275.518,331.813 273.5,330.5C 274.091,333.026 273.424,335.36 271.5,337.5C 264.602,333.274 258.602,327.941 253.5,321.5C 252.422,318.092 250.089,316.092 246.5,315.5C 234.145,304.477 222.145,293.143 210.5,281.5C 210.167,278.5 208.5,276.833 205.5,276.5C 205.461,275.417 205.127,274.417 204.5,273.5C 202.69,271.469 200.69,269.802 198.5,268.5C 196.917,266.337 195.584,264.004 194.5,261.5C 191.875,251.359 190.875,241.026 191.5,230.5C 192.496,224.843 194.829,219.843 198.5,215.5C 201.833,214.167 204.167,211.833 205.5,208.5C 207.652,206.015 210.319,204.349 213.5,203.5C 217.623,203.202 221.623,202.369 225.5,201C 232.833,200.333 240.167,200.333 247.5,201C 250.667,202.167 252.833,204.333 254,207.5C 255.604,206.351 257.27,206.351 259,207.5C 262.203,209.671 265.37,211.671 268.5,213.5 Z"/></g>
<g><path style="opacity:1" fill="#e98488" d="M 286.5,202.5 C 285.514,204.408 283.848,205.408 281.5,205.5C 282.659,203.75 284.326,202.75 286.5,202.5 Z"/></g>
<g><path style="opacity:1" fill="#e96568" d="M 268.5,213.5 C 265.37,211.671 262.203,209.671 259,207.5C 257.27,206.351 255.604,206.351 254,207.5C 252.833,204.333 250.667,202.167 247.5,201C 240.167,200.333 232.833,200.333 225.5,201C 221.623,202.369 217.623,203.202 213.5,203.5C 228.901,195.218 244.234,195.718 259.5,205C 262.574,207.849 265.574,210.683 268.5,213.5 Z"/></g>
<g><path style="opacity:1" fill="#e66f73" d="M 320.5,200.5 C 327.322,202.409 332.989,206.076 337.5,211.5C 331.782,207.757 326.115,204.09 320.5,200.5 Z"/></g>
<g><path style="opacity:1" fill="#de6266" d="M 455.5,195.5 C 460.23,199.227 464.23,203.56 467.5,208.5C 467.427,210.027 468.094,211.027 469.5,211.5C 470.797,216.267 470.797,220.934 469.5,225.5C 469.666,221.486 469.499,217.486 469,213.5C 466.261,209.217 463.261,205.217 460,201.5C 456.802,200.77 455.302,198.77 455.5,195.5 Z"/></g>
<g><path style="opacity:1" fill="#e26d72" d="M 281.5,205.5 C 279.023,209.318 275.689,211.985 271.5,213.5C 274.539,210.46 277.873,207.794 281.5,205.5 Z"/></g>
<g><path style="opacity:1" fill="#df8186" d="M 205.5,208.5 C 204.167,211.833 201.833,214.167 198.5,215.5C 200.5,212.833 202.833,210.5 205.5,208.5 Z"/></g>
<g><path style="opacity:1" fill="#f3cbca" d="M 467.5,208.5 C 468.906,208.973 469.573,209.973 469.5,211.5C 468.094,211.027 467.427,210.027 467.5,208.5 Z"/></g>
<g><path style="opacity:1" fill="#e74e57" d="M 337.5,211.5 C 339.167,212.5 340.5,213.833 341.5,215.5C 342.32,217.812 343.153,220.146 344,222.5C 344.671,223.252 345.504,223.586 346.5,223.5C 351.299,234.484 351.632,245.484 347.5,256.5C 348.989,249.901 349.489,243.235 349,236.5C 347.766,233.58 346.766,230.58 346,227.5C 345.021,225.68 343.521,224.513 341.5,224C 342.276,222.23 342.11,220.397 341,218.5C 340.667,218.833 340.333,219.167 340,219.5C 339.439,216.721 338.606,214.054 337.5,211.5 Z"/></g>
<g><path style="opacity:1" fill="#e37677" d="M 341.5,215.5 C 343.95,217.629 345.617,220.296 346.5,223.5C 345.504,223.586 344.671,223.252 344,222.5C 343.153,220.146 342.32,217.812 341.5,215.5 Z"/></g>
<g><path style="opacity:1" fill="#e16c72" d="M 70.5,223.5 C 72.7756,227.444 75.4423,231.11 78.5,234.5C 77.8333,234.5 77.1667,234.5 76.5,234.5C 73.2197,231.612 71.2197,227.945 70.5,223.5 Z"/></g>
<g><path style="opacity:1" fill="#f0afb0" d="M 469.5,225.5 C 469.245,227.967 468.245,229.967 466.5,231.5C 466.5,230.833 466.5,230.167 466.5,229.5C 467.022,227.781 468.022,226.448 469.5,225.5 Z"/></g>
<g><path style="opacity:1" fill="#fcc6d0" d="M 76.5,234.5 C 77.1667,234.5 77.8333,234.5 78.5,234.5C 78.8333,235.167 79.1667,235.833 79.5,236.5C 77.9731,236.573 76.9731,235.906 76.5,234.5 Z"/></g>
<g><path style="opacity:1" fill="#f8c2c3" d="M 463.5,234.5 C 462.198,236.822 460.198,238.155 457.5,238.5C 459.147,236.674 461.147,235.34 463.5,234.5 Z"/></g>
<g><path style="opacity:1" fill="#dc5258" d="M 466.5,229.5 C 466.5,230.167 466.5,230.833 466.5,231.5C 465.833,232.833 464.833,233.833 463.5,234.5C 461.147,235.34 459.147,236.674 457.5,238.5C 455.283,239.369 452.95,239.702 450.5,239.5C 443.5,239.5 436.5,239.5 429.5,239.5C 437.323,238.671 445.323,238.171 453.5,238C 455.345,236.577 457.345,235.41 459.5,234.5C 459.291,233.914 458.957,233.414 458.5,233C 460.473,232.505 462.473,232.338 464.5,232.5C 464.285,230.821 464.952,229.821 466.5,229.5 Z"/></g>
<g><path style="opacity:1" fill="#e14e54" d="M 429.5,239.5 C 429.5,287.5 429.5,335.5 429.5,383.5C 428.97,391.105 426.303,397.772 421.5,403.5C 421.34,401.801 421.506,400.134 422,398.5C 422.333,398.833 422.667,399.167 423,399.5C 423.129,396.997 424.129,394.997 426,393.5C 426.667,390.833 427.333,388.167 428,385.5C 428.167,336.665 428.667,287.998 429.5,239.5 Z"/></g>
<g><path style="opacity:1" fill="#e7575d" d="M 191.5,230.5 C 190.875,241.026 191.875,251.359 194.5,261.5C 189.273,251.548 188.273,241.215 191.5,230.5 Z"/></g>
<g><path style="opacity:1" fill="#fbabab" d="M 89.5,239.5 C 96.5,239.5 103.5,239.5 110.5,239.5C 110.5,286.833 110.5,334.167 110.5,381.5C 109.501,334.67 109.168,287.67 109.5,240.5C 102.646,240.824 95.979,240.491 89.5,239.5 Z"/></g>
<g><path style="opacity:1" fill="#de4f55" d="M 79.5,236.5 C 90.0693,238.274 100.736,238.941 111.5,238.5C 111.333,287.168 111.5,335.834 112,384.5C 112.221,387.943 113.221,388.276 115,385.5C 115.128,388.514 115.128,391.514 115,394.5C 116.932,398.143 118.765,401.81 120.5,405.5C 113.9,398.955 110.567,390.955 110.5,381.5C 110.5,334.167 110.5,286.833 110.5,239.5C 103.5,239.5 96.5,239.5 89.5,239.5C 85.6215,239.976 82.2882,238.976 79.5,236.5 Z"/></g>
<g><path style="opacity:1" fill="#e97c80" d="M 198.5,268.5 C 200.69,269.802 202.69,271.469 204.5,273.5C 205.127,274.417 205.461,275.417 205.5,276.5C 202.45,274.451 200.117,271.784 198.5,268.5 Z"/></g>
<g><path style="opacity:1" fill="#eb6067" d="M 346.5,259.5 C 346.245,262.016 345.411,264.35 344,266.5C 335.629,276.372 326.462,285.372 316.5,293.5C 317.677,290.962 319.344,288.629 321.5,286.5C 320.572,285.232 320.405,283.899 321,282.5C 321.414,282.957 321.914,283.291 322.5,283.5C 324.745,281.24 327.411,279.906 330.5,279.5C 329.839,274.832 331.839,272.832 336.5,273.5C 336.579,272.07 336.246,270.736 335.5,269.5C 337.419,269.386 339.419,268.72 341.5,267.5C 341.5,266.167 341.5,264.833 341.5,263.5C 342.5,263.5 343.5,263.5 344.5,263.5C 344.229,261.62 344.896,260.287 346.5,259.5 Z"/></g>
<g><path style="opacity:1" fill="#f1969a" d="M 205.5,276.5 C 208.5,276.833 210.167,278.5 210.5,281.5C 208.5,280.167 206.833,278.5 205.5,276.5 Z"/></g>
<g><path style="opacity:1" fill="#ea6768" d="M 246.5,315.5 C 250.089,316.092 252.422,318.092 253.5,321.5C 252.833,321.5 252.167,321.5 251.5,321.5C 249.11,320.109 247.443,318.109 246.5,315.5 Z"/></g>
<g><path style="opacity:1" fill="#f07174" d="M 294.5,315.5 C 290.5,320.167 286.167,324.5 281.5,328.5C 281.192,326.076 281.526,323.743 282.5,321.5C 284.135,320.67 285.802,320.503 287.5,321C 287.943,316.777 290.276,314.944 294.5,315.5 Z"/></g>
<g><path style="opacity:1" fill="#efa1a2" d="M 251.5,321.5 C 252.167,321.5 252.833,321.5 253.5,321.5C 258.602,327.941 264.602,333.274 271.5,337.5C 271.631,338.376 271.298,339.043 270.5,339.5C 263.515,334.182 257.182,328.182 251.5,321.5 Z"/></g>
<g><path style="opacity:1" fill="#ea959e" d="M 429.5,239.5 C 436.5,239.5 443.5,239.5 450.5,239.5C 444.021,240.491 437.354,240.824 430.5,240.5C 430.832,288.336 430.499,336.003 429.5,383.5C 429.5,335.5 429.5,287.5 429.5,239.5 Z"/></g>
<g><path style="opacity:1" fill="#ed6e71" d="M 281.5,328.5 C 278.789,332.212 275.456,335.212 271.5,337.5C 273.424,335.36 274.091,333.026 273.5,330.5C 275.518,331.813 276.685,331.147 277,328.5C 278.414,329.413 279.914,329.413 281.5,328.5 Z"/></g>
<g><path style="opacity:1" fill="#e85a60" d="M 132.5,414.5 C 127.776,412.471 123.776,409.471 120.5,405.5C 121.822,405.67 122.989,405.337 124,404.5C 126.69,408.018 129.524,411.352 132.5,414.5 Z"/></g>
<g><path style="opacity:1" fill="#e1464e" d="M 132.5,414.5 C 137.698,415.922 143.031,416.756 148.5,417C 227.499,417.5 306.499,417.667 385.5,417.5C 385.5,417.833 385.5,418.167 385.5,418.5C 304.166,418.667 222.833,418.5 141.5,418C 138.135,417.495 135.135,416.328 132.5,414.5 Z"/></g>
<g><path style="opacity:1" fill="#e45d64" d="M 420.5,404.5 C 411.54,415.387 399.873,420.054 385.5,418.5C 385.5,418.167 385.5,417.833 385.5,417.5C 394.219,417.381 402.552,415.547 410.5,412C 411.337,410.989 411.67,409.822 411.5,408.5C 414.813,407.845 417.813,406.511 420.5,404.5 Z"/></g>
</svg>
